<mxfile host="Electron" modified="2024-05-01T06:17:06.930Z" agent="Mozilla/5.0 (Windows NT 10.0; Win64; x64) AppleWebKit/537.36 (KHTML, like Gecko) draw.io/24.2.5 Chrome/120.0.6099.109 Electron/28.1.0 Safari/537.36" etag="tMlZSGD76l6tURKOf1F4" version="24.2.5" type="device">
  <diagram name="Page-1" id="xnV3SyQSmONjZ3Rqiviw">
    <mxGraphModel dx="1050" dy="621" grid="1" gridSize="10" guides="1" tooltips="1" connect="1" arrows="1" fold="1" page="1" pageScale="1" pageWidth="850" pageHeight="1100" math="0" shadow="0">
      <root>
        <mxCell id="0" />
        <mxCell id="1" parent="0" />
        <mxCell id="lnChyeiL-BGFHyh5l16n-19" style="edgeStyle=orthogonalEdgeStyle;rounded=0;orthogonalLoop=1;jettySize=auto;html=1;exitX=0.5;exitY=1;exitDx=0;exitDy=0;" parent="1" edge="1">
          <mxGeometry relative="1" as="geometry">
            <mxPoint x="425" y="800" as="sourcePoint" />
            <mxPoint x="425" y="800" as="targetPoint" />
          </mxGeometry>
        </mxCell>
        <mxCell id="4_FmF-uV8AbZ15JTgmGW-25" value="" style="rounded=0;whiteSpace=wrap;html=1;" parent="1" vertex="1">
          <mxGeometry x="50" y="30" width="790" height="740" as="geometry" />
        </mxCell>
        <mxCell id="4_FmF-uV8AbZ15JTgmGW-51" value="" style="endArrow=none;html=1;rounded=0;" parent="1" edge="1">
          <mxGeometry width="50" height="50" relative="1" as="geometry">
            <mxPoint x="50" y="140" as="sourcePoint" />
            <mxPoint x="840" y="140" as="targetPoint" />
          </mxGeometry>
        </mxCell>
        <mxCell id="4_FmF-uV8AbZ15JTgmGW-52" value="&lt;font style=&quot;font-size: 25px;&quot;&gt;&lt;b&gt;Logo&lt;/b&gt;&lt;/font&gt;" style="text;html=1;align=center;verticalAlign=middle;resizable=0;points=[];autosize=1;strokeColor=none;fillColor=none;" parent="1" vertex="1">
          <mxGeometry x="80" y="70" width="80" height="40" as="geometry" />
        </mxCell>
        <mxCell id="4_FmF-uV8AbZ15JTgmGW-53" value="&lt;font style=&quot;font-size: 17px;&quot;&gt;&lt;b&gt;Home&lt;/b&gt;&lt;/font&gt;" style="text;strokeColor=none;align=center;fillColor=none;html=1;verticalAlign=middle;whiteSpace=wrap;rounded=0;" parent="1" vertex="1">
          <mxGeometry x="210" y="75" width="60" height="30" as="geometry" />
        </mxCell>
        <mxCell id="4_FmF-uV8AbZ15JTgmGW-54" value="&lt;font style=&quot;font-size: 17px;&quot;&gt;&lt;b&gt;About us&lt;/b&gt;&lt;/font&gt;" style="text;strokeColor=none;align=center;fillColor=none;html=1;verticalAlign=middle;whiteSpace=wrap;rounded=0;" parent="1" vertex="1">
          <mxGeometry x="290" y="75" width="80" height="30" as="geometry" />
        </mxCell>
        <mxCell id="4_FmF-uV8AbZ15JTgmGW-55" value="&lt;font style=&quot;font-size: 17px;&quot;&gt;&lt;b&gt;Packages&lt;/b&gt;&lt;/font&gt;" style="text;strokeColor=none;align=center;fillColor=none;html=1;verticalAlign=middle;whiteSpace=wrap;rounded=0;" parent="1" vertex="1">
          <mxGeometry x="410" y="75" width="60" height="30" as="geometry" />
        </mxCell>
        <mxCell id="4_FmF-uV8AbZ15JTgmGW-56" value="&lt;font style=&quot;font-size: 17px;&quot;&gt;&lt;b&gt;Contact us&lt;/b&gt;&lt;/font&gt;" style="text;strokeColor=none;align=center;fillColor=none;html=1;verticalAlign=middle;whiteSpace=wrap;rounded=0;" parent="1" vertex="1">
          <mxGeometry x="510" y="75" width="90" height="30" as="geometry" />
        </mxCell>
        <mxCell id="4_FmF-uV8AbZ15JTgmGW-57" value="&lt;font style=&quot;font-size: 16px;&quot;&gt;&lt;b&gt;Contact Us Today&lt;/b&gt;&lt;/font&gt;" style="text;strokeColor=none;align=center;fillColor=none;html=1;verticalAlign=middle;whiteSpace=wrap;rounded=0;" parent="1" vertex="1">
          <mxGeometry x="140" y="180" width="140" height="30" as="geometry" />
        </mxCell>
        <mxCell id="4_FmF-uV8AbZ15JTgmGW-58" value="&lt;span style=&quot;font-size: 16px;&quot;&gt;&lt;b&gt;Want us to call you&lt;/b&gt;&lt;/span&gt;" style="text;strokeColor=none;align=center;fillColor=none;html=1;verticalAlign=middle;whiteSpace=wrap;rounded=0;" parent="1" vertex="1">
          <mxGeometry x="90" y="460" width="180" height="30" as="geometry" />
        </mxCell>
        <mxCell id="4_FmF-uV8AbZ15JTgmGW-59" value="&lt;font style=&quot;font-size: 16px;&quot;&gt;&lt;b&gt;Footer&lt;/b&gt;&lt;/font&gt;" style="text;strokeColor=none;align=center;fillColor=none;html=1;verticalAlign=middle;whiteSpace=wrap;rounded=0;" parent="1" vertex="1">
          <mxGeometry x="365" y="680" width="150" height="30" as="geometry" />
        </mxCell>
        <mxCell id="4_FmF-uV8AbZ15JTgmGW-60" value="" style="rounded=1;whiteSpace=wrap;html=1;fillColor=#d5e8d4;strokeColor=#82b366;" parent="1" vertex="1">
          <mxGeometry x="470" y="170" width="300" height="220" as="geometry" />
        </mxCell>
        <mxCell id="4_FmF-uV8AbZ15JTgmGW-61" value="&lt;font style=&quot;font-size: 16px;&quot;&gt;&lt;b&gt;Cooperate Office&lt;/b&gt;&lt;/font&gt;" style="text;strokeColor=none;align=center;fillColor=none;html=1;verticalAlign=middle;whiteSpace=wrap;rounded=0;" parent="1" vertex="1">
          <mxGeometry x="535" y="190" width="150" height="30" as="geometry" />
        </mxCell>
        <mxCell id="4_FmF-uV8AbZ15JTgmGW-62" value="&lt;div style=&quot;&quot;&gt;&lt;span style=&quot;font-size: 14px; background-color: initial;&quot;&gt;Sunbeam institute of information and technology,hinjewadi phase 2,pune&lt;/span&gt;&lt;/div&gt;" style="text;strokeColor=none;align=left;fillColor=none;html=1;verticalAlign=middle;whiteSpace=wrap;rounded=0;" parent="1" vertex="1">
          <mxGeometry x="535" y="230" width="190" height="80" as="geometry" />
        </mxCell>
        <mxCell id="4_FmF-uV8AbZ15JTgmGW-63" value="&lt;font style=&quot;font-size: 16px;&quot;&gt;&lt;b&gt;Working Hours&lt;/b&gt;&lt;/font&gt;" style="text;strokeColor=none;align=center;fillColor=none;html=1;verticalAlign=middle;whiteSpace=wrap;rounded=0;" parent="1" vertex="1">
          <mxGeometry x="540" y="320" width="170" height="30" as="geometry" />
        </mxCell>
        <mxCell id="4_FmF-uV8AbZ15JTgmGW-64" value="&lt;font style=&quot;font-size: 14px;&quot;&gt;Call&lt;/font&gt;" style="text;strokeColor=none;align=center;fillColor=none;html=1;verticalAlign=middle;whiteSpace=wrap;rounded=0;" parent="1" vertex="1">
          <mxGeometry x="115" y="230" width="60" height="30" as="geometry" />
        </mxCell>
        <mxCell id="4_FmF-uV8AbZ15JTgmGW-65" value="&lt;span style=&quot;font-size: 14px;&quot;&gt;Name&lt;/span&gt;" style="text;strokeColor=none;align=center;fillColor=none;html=1;verticalAlign=middle;whiteSpace=wrap;rounded=0;" parent="1" vertex="1">
          <mxGeometry x="120" y="490" width="60" height="30" as="geometry" />
        </mxCell>
        <mxCell id="4_FmF-uV8AbZ15JTgmGW-66" value="&lt;font style=&quot;font-size: 14px;&quot;&gt;7845246578&lt;/font&gt;" style="text;strokeColor=none;align=center;fillColor=none;html=1;verticalAlign=middle;whiteSpace=wrap;rounded=0;" parent="1" vertex="1">
          <mxGeometry x="95" y="260" width="95" height="30" as="geometry" />
        </mxCell>
        <mxCell id="4_FmF-uV8AbZ15JTgmGW-67" value="&lt;font style=&quot;font-size: 14px;&quot;&gt;Tourism@gmail.com&lt;/font&gt;" style="text;strokeColor=none;align=center;fillColor=none;html=1;verticalAlign=middle;whiteSpace=wrap;rounded=0;" parent="1" vertex="1">
          <mxGeometry x="215" y="260" width="130" height="30" as="geometry" />
        </mxCell>
        <mxCell id="4_FmF-uV8AbZ15JTgmGW-68" value="&lt;font style=&quot;font-size: 14px;&quot;&gt;10 AM to 6 PM&lt;/font&gt;" style="text;strokeColor=none;align=center;fillColor=none;html=1;verticalAlign=middle;whiteSpace=wrap;rounded=0;" parent="1" vertex="1">
          <mxGeometry x="570" y="350" width="100" height="30" as="geometry" />
        </mxCell>
        <mxCell id="4_FmF-uV8AbZ15JTgmGW-69" value="" style="rounded=1;whiteSpace=wrap;html=1;" parent="1" vertex="1">
          <mxGeometry x="115" y="520" width="120" height="20" as="geometry" />
        </mxCell>
        <mxCell id="4_FmF-uV8AbZ15JTgmGW-70" value="&lt;font style=&quot;font-size: 14px;&quot;&gt;Email&lt;/font&gt;" style="text;strokeColor=none;align=center;fillColor=none;html=1;verticalAlign=middle;whiteSpace=wrap;rounded=0;" parent="1" vertex="1">
          <mxGeometry x="260" y="240" width="60" height="30" as="geometry" />
        </mxCell>
        <mxCell id="4_FmF-uV8AbZ15JTgmGW-71" value="&lt;span style=&quot;font-size: 14px;&quot;&gt;Email&lt;/span&gt;" style="text;strokeColor=none;align=center;fillColor=none;html=1;verticalAlign=middle;whiteSpace=wrap;rounded=0;" parent="1" vertex="1">
          <mxGeometry x="310" y="490" width="60" height="30" as="geometry" />
        </mxCell>
        <mxCell id="4_FmF-uV8AbZ15JTgmGW-72" value="" style="rounded=1;whiteSpace=wrap;html=1;" parent="1" vertex="1">
          <mxGeometry x="290" y="520" width="120" height="20" as="geometry" />
        </mxCell>
        <mxCell id="4_FmF-uV8AbZ15JTgmGW-73" value="&lt;font style=&quot;font-size: 13px;&quot;&gt;Request call&lt;/font&gt;" style="text;strokeColor=#b85450;align=center;fillColor=#f8cecc;html=1;verticalAlign=middle;whiteSpace=wrap;rounded=0;" parent="1" vertex="1">
          <mxGeometry x="470" y="510" width="95" height="30" as="geometry" />
        </mxCell>
        <mxCell id="4_FmF-uV8AbZ15JTgmGW-74" value="" style="endArrow=none;html=1;rounded=0;" parent="1" edge="1">
          <mxGeometry width="50" height="50" relative="1" as="geometry">
            <mxPoint x="50" y="625" as="sourcePoint" />
            <mxPoint x="840" y="625" as="targetPoint" />
          </mxGeometry>
        </mxCell>
        <mxCell id="4_FmF-uV8AbZ15JTgmGW-75" style="edgeStyle=orthogonalEdgeStyle;rounded=0;orthogonalLoop=1;jettySize=auto;html=1;exitX=0.5;exitY=1;exitDx=0;exitDy=0;" parent="1" source="4_FmF-uV8AbZ15JTgmGW-25" target="4_FmF-uV8AbZ15JTgmGW-25" edge="1">
          <mxGeometry relative="1" as="geometry" />
        </mxCell>
      </root>
    </mxGraphModel>
  </diagram>
</mxfile>
